{"scene":0,"asset":{"generator":"ImageToStl.com","version":"2.0"},"scenes":[{"name":"Scene","nodes":[0]}],"nodes":[{"name":"Node0","children":[1]},{"name":"Node1","mesh":0}],"materials":[{"name":"plastic-yellow","pbrMetallicRoughness":{"baseColorFactor":[0.930111,0.48515,0.05448,1.0],"metallicFactor":0.5,"roughnessFactor":0.4172834},"emissiveFactor":[0.0,0.0,0.0],"doubleSided":true},{"name":"plastico_morado","pbrMetallicRoughness":{"baseColorFactor":[0.775822,0.109461,0.162029,1.0],"metallicFactor":0.5,"roughnessFactor":0.49600837},"emissiveFactor":[0.0,0.0,0.0],"doubleSided":true},{"name":"plastico_negro","pbrMetallicRoughness":{"baseColorFactor":[0.076185,0.036889,0.052861,1.0],"metallicFactor":0.5,"roughnessFactor":0.5589418},"emissiveFactor":[0.0,0.0,0.0],"doubleSided":true},{"name":"Material.000","pbrMetallicRoughness":{"baseColorFactor":[0.775822,0.0,0.038512,1.0],"metallicFactor":0.822,"roughnessFactor":0.75},"emissiveFactor":[0.0,0.0,0.0],"doubleSided":true},{"name":"Material.005","pbrMetallicRoughness":{"baseColorFactor":[0.0,0.198378,0.8,1.0],"metallicFactor":0.5,"roughnessFactor":0.75,"baseColorTexture":{"index":0}},"emissiveFactor":[0.0,0.0,0.0],"doubleSided":true}],"images":[{"bufferView":0,"name":"","mimeType":"image/png"}],"textures":[{"sampler":0,"source":0}],"samplers":[{"magFilter":9729,"minFilter":9987}],"meshes":[{"name":"Mesh0","primitives":[{"indices":3,"material":0,"attributes":{"POSITION":0,"NORMAL":1,"TEXCOORD_0":2}},{"indices":4,"material":0,"attributes":{"POSITION":0,"NORMAL":1,"TEXCOORD_0":2}},{"indices":5,"material":1,"attributes":{"POSITION":0,"NORMAL":1,"TEXCOORD_0":2}},{"indices":6,"material":2,"attributes":{"POSITION":0,"NORMAL":1,"TEXCOORD_0":2}},{"indices":7,"material":3,"attributes":{"POSITION":0,"NORMAL":1,"TEXCOORD_0":2}},{"indices":8,"material":4,"attributes":{"POSITION":0,"NORMAL":1,"TEXCOORD_0":2}}]}],"accessors":[{"bufferView":1,"componentType":5126,"count":5128,"type":"VEC3","min":[-0.88386977,-0.7781767,0.0018624663],"max":[0.88386977,0.7781767,2.9847465]},{"bufferView":2,"componentType":5126,"count":5128,"type":"VEC3"},{"bufferView":3,"componentType":5126,"count":5128,"type":"VEC2"},{"bufferView":4,"componentType":5123,"count":216,"type":"SCALAR"},{"bufferView":5,"componentType":5123,"count":36234,"type":"SCALAR"},{"bufferView":6,"componentType":5123,"count":5562,"type":"SCALAR"},{"bufferView":7,"componentType":5123,"count":29538,"type":"SCALAR"},{"bufferView":8,"componentType":5123,"count":2430,"type":"SCALAR"},{"bufferView":9,"componentType":5123,"count":2736,"type":"SCALAR"}],"bufferViews":[{"buffer":0,"byteLength":406103,"byteOffset":0},{"target":34962,"buffer":0,"byteLength":61536,"byteOffset":406104},{"target":34962,"buffer":0,"byteLength":61536,"byteOffset":467640},{"target":34962,"buffer":0,"byteLength":41024,"byteOffset":529176},{"target":34963,"buffer":0,"byteLength":432,"byteOffset":570200},{"target":34963,"buffer":0,"byteLength":72468,"byteOffset":570632},{"target":34963,"buffer":0,"byteLength":11124,"byteOffset":643100},{"target":34963,"buffer":0,"byteLength":59076,"byteOffset":654224},{"target":34963,"buffer":0,"byteLength":4860,"byteOffset":713300},{"target":34963,"buffer":0,"byteLength":5472,"byteOffset":718160}],"buffers":[{"byteLength":723632,"uri":"data:application/octet-stream;base64,"}]}